HIERARCHY
ROOT Hips
{
	OFFSET -3.958830 18.904000 13.208200
	CHANNELS 6 Xposition Yposition Zposition Zrotation Yrotation Xrotation 
	JOINT LHipJoint
	{
		OFFSET 0.000000 0.000000 0.000000
		CHANNELS 3 Zrotation Yrotation Xrotation
		JOINT LeftUpLeg
		{
			OFFSET 1.800000 -1.400000 0.085000
			CHANNELS 3 Zrotation Yrotation Xrotation
			JOINT LeftLeg
			{
				OFFSET 2.215000 -6.000000 0.000000
				CHANNELS 3 Zrotation Yrotation Xrotation
				JOINT LeftFoot
				{
					OFFSET 2.500000 -6.900000 0.000000
					CHANNELS 3 Zrotation Yrotation Xrotation
					JOINT LeftToeBase
					{
						OFFSET 0.200000 -0.500000 1.950000
						CHANNELS 3 Zrotation Yrotation Xrotation
						End Site
						{
							OFFSET 0.000000 0.000000 0.000000
						}
					}
				}
			}
		}
	}
	JOINT RHipJoint
	{
		OFFSET 0.000000 0.000000 0.000000
		CHANNELS 3 Zrotation Yrotation Xrotation
		JOINT RightUpLeg
		{
			OFFSET -1.800000 -1.400000 0.085000
			CHANNELS 3 Zrotation Yrotation Xrotation
			JOINT RightLeg
			{
				OFFSET -2.215000 -6.000000 0.000000
				CHANNELS 3 Zrotation Yrotation Xrotation
				JOINT RightFoot
				{
					OFFSET -2.500000 -6.900000 0.000000
					CHANNELS 3 Zrotation Yrotation Xrotation
					JOINT RightToeBase
					{
						OFFSET -0.200000 -0.500000 1.950000
						CHANNELS 3 Zrotation Yrotation Xrotation
						End Site
						{
							OFFSET 0.000000 0.000000 0.000000
						}
					}
				}
			}
		}
	}
	JOINT LowerBack
	{
		OFFSET 0.000000 0.000000 0.000000
		CHANNELS 3 Zrotation Yrotation Xrotation
		JOINT Spine
		{
			OFFSET -0.087000 1.940000 -0.288900
			CHANNELS 3 Zrotation Yrotation Xrotation
			JOINT Spine1
			{
				OFFSET 0.000000 1.950000 0.060000
				CHANNELS 3 Zrotation Yrotation Xrotation
				JOINT Neck
				{
					OFFSET 0.000000 0.000000 0.000000
					CHANNELS 3 Zrotation Yrotation Xrotation
					JOINT Neck1
					{
						OFFSET 0.000000 1.600000 0.340000
						CHANNELS 3 Zrotation Yrotation Xrotation
						JOINT Head
						{
							OFFSET 0.000000 1.667000 -0.240000
							CHANNELS 3 Zrotation Yrotation Xrotation
							End Site
							{
								OFFSET 0.000000 0.000000 0.000000
							}
						}
					}
				}
				JOINT LeftShoulder
				{
					OFFSET 0.000000 0.000000 0.000000
					CHANNELS 3 Zrotation Yrotation Xrotation
					JOINT LeftArm
					{
						OFFSET 2.700000 1.550000 -0.730000
						CHANNELS 3 Zrotation Yrotation Xrotation
						JOINT LeftForeArm
						{
							OFFSET 5.450000 0.000000 0.000000
							CHANNELS 3 Zrotation Yrotation Xrotation
							JOINT LeftHand
							{
								OFFSET 3.450000 0.000000 0.000000
								CHANNELS 3 Zrotation Yrotation Xrotation
								JOINT LeftHandIndex1
								{
									OFFSET 0.750000 0.000000 0.000000
									CHANNELS 3 Zrotation Yrotation Xrotation
									End Site
									{
										OFFSET 0.000000 0.000000 0.000000
									}
								}
							}
						}
					}
				}
				JOINT RightShoulder
				{
					OFFSET 0.000000 0.000000 0.000000
					CHANNELS 3 Zrotation Yrotation Xrotation
					JOINT RightArm
					{
						OFFSET -2.700000 1.550000 -0.730000
						CHANNELS 3 Zrotation Yrotation Xrotation
						JOINT RightForeArm
						{
							OFFSET -5.450000 0.000000 0.000000
							CHANNELS 3 Zrotation Yrotation Xrotation
							JOINT RightHand
							{
								OFFSET -3.450000 0.000000 0.000000
								CHANNELS 3 Zrotation Yrotation Xrotation
								JOINT RightHandIndex1
								{
									OFFSET -0.750000 0.000000 0.000000
									CHANNELS 3 Zrotation Yrotation Xrotation
									End Site
									{
										OFFSET 0.000000 0.000000 0.000000
									}
								}
							}
						}
					}
				}
			}
		}
	}
}
MOTION
Frames: 6
Frame Time: 0.016667
0.598270 12.988620 -0.875220 -55.337842 10.489203 5.058772 -15.285237 12.457196 4.933825 -12.652853 -9.321859 -29.092798 -0.272017 6.827071 41.175778 0.250644 6.299395 2.425216 0.633850 0.349120 0.677360 18.153197 -11.235028 2.168446 -0.499938 -0.773515 -12.694797 -7.550014 -2.842280 20.804832 -0.384169 -3.225976 3.269486 0.068870 0.096790 0.298820 -3.499707 -1.007167 -8.180549 11.182703 2.218225 40.926443 -4.423681 7.561649 17.431959 4.489475 1.899865 -17.155656 2.611292 1.445808 34.001152 -0.026330 4.450280 -15.706780 -13.363740 -36.277537 12.775026 -15.674718 -18.328272 0.301027 12.497310 -2.004533 -1.277038 -3.633623 3.054493 0.554150 -0.037460 0.251150 0.274740 3.973880 40.616050 8.730168 16.137769 22.651343 -19.932585 140.303407 80.347941 124.263009 1.887374 -0.503976 -0.036380 0.106040 -0.358300 -0.088290 
0.511760 12.937970 -0.817320 -55.418400 14.306346 5.986500 -15.332618 12.075838 5.062021 -11.347401 -10.708611 -31.449131 -5.015757 8.122769 39.299572 0.150590 6.415972 2.351101 0.683870 0.406280 0.613120 18.214519 -10.858576 2.258287 0.145448 2.084719 -23.082428 -9.017636 -2.585888 35.770352 -0.506606 -4.610777 2.663408 0.179710 0.194790 0.363800 -3.544691 -1.022613 -8.235619 10.479343 1.263558 36.200687 -3.192650 4.946065 17.355620 3.819595 1.993999 -14.967212 3.143589 2.573077 30.065058 1.345860 4.177880 -12.751270 -11.482035 -32.810708 10.986618 -18.803667 -20.200220 1.834583 11.455667 -1.440134 -1.223191 -3.800479 3.195162 0.438960 0.076120 0.128530 0.291340 3.513425 35.616821 8.662733 19.701451 23.431495 -14.362278 160.716169 75.343760 139.428541 1.800758 -1.557803 -0.031860 0.049230 -0.311170 -0.068890 
0.475070 12.948930 -0.766940 -54.482271 18.077317 5.425635 -15.496945 12.011755 5.163670 -11.549723 -12.007613 -31.050676 -6.914926 9.258499 41.421811 0.332320 7.106119 2.118768 0.593020 0.284610 0.584940 18.139605 -10.304332 2.391520 -1.846393 3.289208 -28.928644 -9.052167 -3.524972 46.128040 -0.765548 -6.122426 2.123391 0.083190 0.205090 0.395280 -3.207722 -1.874114 -8.442589 7.510818 0.912553 36.403356 -1.358080 3.164004 14.704885 3.324957 3.307303 -14.440974 4.993185 2.412911 30.829065 0.817640 4.771050 -12.531480 -10.931849 -31.125253 10.496654 -20.754351 -20.576636 2.468468 10.573313 -1.331490 -1.100689 -3.850985 3.146747 0.457130 0.090240 0.127450 0.237640 3.879396 32.218500 8.243143 22.805891 22.922113 -11.726984 155.274715 70.626562 128.419468 1.973777 -1.382469 -0.027940 0.026660 -0.242640 -0.086540 
0.480290 13.006890 -0.709930 -52.044818 18.620608 2.637197 -15.801365 12.711826 4.999532 -14.612204 -10.822594 -25.942800 -5.863863 8.217931 37.161374 0.248425 6.209785 2.423698 0.615560 0.286600 0.654040 17.827877 -9.863160 2.328077 -6.290919 3.039988 -30.727782 -7.405160 -4.487846 49.491441 -0.880753 -6.659085 1.922724 0.039220 0.099500 0.411360 -2.288685 -3.695576 -8.377255 -0.613183 3.920224 38.815153 3.731692 3.122221 14.375323 2.960075 4.673209 -15.287271 6.855476 1.536236 34.044230 -1.377110 5.674760 -12.509560 -11.153345 -31.699326 11.334871 -21.549170 -18.887858 2.016654 10.409249 -1.700837 -1.029044 -3.731822 3.158883 0.521960 0.031350 0.213930 0.234450 4.742891 32.805247 8.469319 20.001748 19.842094 -13.100077 148.230138 67.528823 114.904412 2.165245 -1.311341 0.005820 -0.033280 -0.297740 -0.113150 
0.458700 13.061520 -0.619640 -51.054770 18.307580 0.119836 -15.995227 13.090951 4.819288 -16.030118 -9.658115 -23.158185 -4.778206 7.742485 34.879864 0.166317 5.821119 2.526122 0.537770 0.172030 0.654700 17.665979 -9.411602 2.471444 -8.506941 3.721158 -32.849433 -7.204954 -4.647364 53.301123 -0.976291 -7.252731 1.707907 -0.041530 0.061860 0.413500 -1.704911 -4.894130 -8.383449 -6.613288 6.927244 39.399608 7.785786 3.376458 13.086220 2.447464 6.165161 -15.977581 9.365598 1.169469 38.001474 -1.683660 6.543290 -10.903990 -12.558372 -31.887901 11.974966 -21.707431 -17.105704 2.300509 8.406344 -0.979017 -0.786132 -3.741289 3.086939 0.571380 0.018470 0.221180 0.153440 7.166077 32.458722 8.304849 17.467077 17.990081 -12.510565 141.631528 64.800172 103.131078 2.333229 -1.253459 -0.005420 -0.065230 -0.230280 -0.163200 
0.443490 13.074840 -0.516400 -51.530355 15.859391 -4.013582 -16.028599 13.275178 4.476490 -13.560581 -8.174814 -19.658328 -11.177315 10.324138 32.862137 0.267143 6.381391 2.308539 0.576440 0.172620 0.741540 17.641071 -9.094692 2.782551 -10.030546 5.693019 -33.960179 -6.163902 -5.035459 58.140801 -1.192240 -7.974141 1.428347 -0.040470 -0.034130 0.371580 -1.554379 -5.351295 -8.430473 -9.030194 9.009020 40.993946 9.259452 4.101597 12.592119 1.772521 6.254734 -16.012825 9.435352 1.217241 41.171999 2.196550 5.941390 -13.380580 -12.361543 -31.301278 12.160382 -23.096881 -15.848995 2.401194 8.044622 0.094495 -0.716075 -3.638939 3.050252 0.703480 -0.098050 0.281250 0.102850 8.378191 32.002876 8.325741 14.810557 16.371625 -12.241020 139.963203 62.413331 98.090487 2.408985 -1.321785 -0.036120 -0.057280 -0.238680 -0.225240 
